mtllib ./rubik.mtl
o rubik
v 100.000000 100.000015 -99.999985
v 100.000000 -99.999985 -100.000015
v -100.000000 -99.999985 -100.000015
v -100.000000 100.000015 -99.999985
v -100.000000 -100.000015 99.999985
v -100.000000 99.999985 100.000015
v 100.000000 -100.000015 99.999985
v 100.000000 99.999985 100.000015
vt -0.000125 0.324629
vt 0.000795 -0.000172
vt 0.326513 -0.000442
vt 0.326963 0.324587
vt 0.998685 0.003275
vt 0.997658 0.327364
vt 0.674061 0.328279
vt 0.674624 0.002353
vt 0.329578 0.329929
vt 0.330551 0.664476
vt -0.003664 0.330548
vt -0.004720 0.663822
vt 0.667161 0.331713
vt 0.666207 0.668350
vt 0.329540 0.330301
vt 0.330522 0.668017
vt 0.002124 0.997044
vt 0.002407 0.675282
vt 0.324031 0.997364
vt 0.323974 0.674636
vt 0.663198 0.324576
vt 0.338687 0.323219
vt 0.338129 -0.001250
vt 0.662775 -0.000594
vn 0.000000 0.000000 -1.000000
vn -1.000000 0.000000 0.000000
vn 0.000000 -0.000000 1.000000
vn 1.000000 0.000000 0.000000
vn 0.000000 1.000000 0.000000
vn 0.000000 -1.000000 -0.000000
s 1
f 1/1/1 2/2/1 3/3/1
f 1/1/1 3/3/1 4/4/1
f 5/5/2 6/6/2 4/7/2
f 5/5/2 4/7/2 3/8/2
f 7/9/3 8/10/3 5/11/3
f 8/10/3 6/12/3 5/11/3
f 2/13/4 1/14/4 7/15/4
f 1/14/4 8/16/4 7/15/4
f 1/17/5 4/18/5 8/19/5
f 4/18/5 6/20/5 8/19/5
f 2/21/6 7/22/6 5/23/6
f 2/21/6 5/23/6 3/24/6
