# WaveFront *.obj file (generated by Autodesk ATF)

g MeshBody1

v 4.000000 0.000000 0.000000
v 3.987972 0.309969 0.000000
v 3.951960 0.618075 0.000000
v 3.892180 0.922464 0.000000
v 3.808992 1.221304 0.000000
v 3.702896 1.512799 0.000000
v 3.574530 1.795197 0.000000
v 3.424668 2.066797 0.000000
v 3.254209 2.325968 0.000000
v 3.064178 2.571150 0.000000
v 2.855719 2.800869 0.000000
v 2.630085 3.013743 0.000000
v 2.388635 3.208493 0.000000
v 2.132818 3.383946 0.000000
v 1.864174 3.539047 0.000000
v 1.584319 3.672864 0.000000
v 1.294936 3.784593 0.000000
v 0.997764 3.873560 0.000000
v 0.694593 3.939231 0.000000
v 0.387244 3.981211 0.000000
v 0.077565 3.999248 0.000000
v -0.232579 3.993233 0.000000
v -0.541325 3.963202 0.000000
v -0.846815 3.909335 0.000000
v -1.147213 3.831958 0.000000
v -1.440711 3.731535 0.000000
v -1.725544 3.608670 0.000000
v -2.000000 3.464102 0.000000
v -2.262428 3.298700 0.000000
v -2.511248 3.113460 0.000000
v -2.744966 2.909494 0.000000
v -2.962176 2.688031 0.000000
v -3.161571 2.450402 0.000000
v -3.341951 2.198036 0.000000
v -3.502233 1.932450 0.000000
v -3.641452 1.655243 0.000000
v -3.758770 1.368080 0.000000
v -3.853483 1.072690 0.000000
v -3.925021 0.770849 0.000000
v -3.972953 0.464371 0.000000
v -3.996992 0.155101 0.000000
v -3.996992 -0.155101 0.000000
v -3.972953 -0.464371 0.000000
v -3.925021 -0.770849 0.000000
v -3.853483 -1.072690 0.000000
v -3.758770 -1.368080 0.000000
v -3.641452 -1.655243 0.000000
v -3.502233 -1.932451 0.000000
v -3.341951 -2.198036 0.000000
v -3.161571 -2.450402 0.000000
v -2.962176 -2.688032 0.000000
v -2.744966 -2.909495 0.000000
v -2.511248 -3.113460 0.000000
v -2.262428 -3.298700 0.000000
v -2.000000 -3.464102 0.000000
v -1.725544 -3.608670 0.000000
v -1.440711 -3.731535 0.000000
v -1.147213 -3.831958 0.000000
v -0.846815 -3.909336 0.000000
v -0.541325 -3.963202 0.000000
v -0.232579 -3.993233 0.000000
v 0.077565 -3.999248 0.000000
v 0.387244 -3.981211 0.000000
v 0.694593 -3.939231 0.000000
v 0.997764 -3.873560 0.000000
v 1.294936 -3.784593 0.000000
v 1.584319 -3.672864 0.000000
v 1.864174 -3.539047 0.000000
v 2.132818 -3.383946 0.000000
v 2.388635 -3.208493 0.000000
v 2.630085 -3.013744 0.000000
v 2.855719 -2.800869 0.000000
v 3.064178 -2.571151 0.000000
v 3.254209 -2.325968 0.000000
v 3.424668 -2.066798 0.000000
v 3.574530 -1.795197 0.000000
v 3.702896 -1.512799 0.000000
v 3.808992 -1.221304 0.000000
v 3.892180 -0.922464 0.000000
v 3.951960 -0.618075 0.000000
v 3.987972 -0.309970 0.000000
v 4.000000 0.000000 3.000000
v 3.987972 -0.309970 3.000000
v 3.951960 -0.618075 3.000000
v 3.892180 -0.922464 3.000000
v 3.808992 -1.221304 3.000000
v 3.702896 -1.512799 3.000000
v 3.574530 -1.795197 3.000000
v 3.424668 -2.066798 3.000000
v 3.254209 -2.325968 3.000000
v 3.064178 -2.571151 3.000000
v 2.855719 -2.800869 3.000000
v 2.630085 -3.013744 3.000000
v 2.388635 -3.208493 3.000000
v 2.132818 -3.383946 3.000000
v 1.864174 -3.539047 3.000000
v 1.584319 -3.672864 3.000000
v 1.294936 -3.784593 3.000000
v 0.997764 -3.873560 3.000000
v 0.694593 -3.939231 3.000000
v 0.387244 -3.981211 3.000000
v 0.077565 -3.999248 3.000000
v -0.232579 -3.993233 3.000000
v -0.541325 -3.963202 3.000000
v -0.846815 -3.909336 3.000000
v -1.147213 -3.831958 3.000000
v -1.440711 -3.731535 3.000000
v -1.725544 -3.608670 3.000000
v -2.000000 -3.464102 3.000000
v -2.262428 -3.298700 3.000000
v -2.511248 -3.113460 3.000000
v -2.744966 -2.909495 3.000000
v -2.962176 -2.688032 3.000000
v -3.161571 -2.450402 3.000000
v -3.341951 -2.198036 3.000000
v -3.502233 -1.932451 3.000000
v -3.641452 -1.655243 3.000000
v -3.758770 -1.368080 3.000000
v -3.853483 -1.072690 3.000000
v -3.925021 -0.770849 3.000000
v -3.972953 -0.464371 3.000000
v -3.996992 -0.155101 3.000000
v -3.996992 0.155101 3.000000
v -3.972953 0.464371 3.000000
v -3.925021 0.770849 3.000000
v -3.853483 1.072690 3.000000
v -3.758770 1.368080 3.000000
v -3.641452 1.655243 3.000000
v -3.502233 1.932450 3.000000
v -3.341951 2.198036 3.000000
v -3.161571 2.450402 3.000000
v -2.962176 2.688031 3.000000
v -2.744966 2.909494 3.000000
v -2.511248 3.113460 3.000000
v -2.262428 3.298700 3.000000
v -2.000000 3.464102 3.000000
v -1.725544 3.608670 3.000000
v -1.440711 3.731535 3.000000
v -1.147213 3.831958 3.000000
v -0.846815 3.909335 3.000000
v -0.541325 3.963202 3.000000
v -0.232579 3.993233 3.000000
v 0.077565 3.999248 3.000000
v 0.387244 3.981211 3.000000
v 0.694593 3.939231 3.000000
v 0.997764 3.873560 3.000000
v 1.294936 3.784593 3.000000
v 1.584319 3.672864 3.000000
v 1.864174 3.539047 3.000000
v 2.132818 3.383946 3.000000
v 2.388635 3.208493 3.000000
v 2.630085 3.013743 3.000000
v 2.855719 2.800869 3.000000
v 3.064178 2.571150 3.000000
v 3.254209 2.325968 3.000000
v 3.424668 2.066797 3.000000
v 3.574530 1.795197 3.000000
v 3.702896 1.512799 3.000000
v 3.808992 1.221304 3.000000
v 3.892180 0.922464 3.000000
v 3.951960 0.618075 3.000000
v 3.987972 0.309969 3.000000
v -5.000000 -5.000000 0.000000
v 5.000000 -5.000000 0.000000
v 5.000000 5.000000 0.000000
v -5.000000 5.000000 0.000000
v 5.000000 -5.000000 -10.000000
v -5.000000 -5.000000 -10.000000
v -5.000000 5.000000 -10.000000
v 5.000000 5.000000 -10.000000
usemtl ABS_(White)
f 2 82 1
f 1 82 83
f 1 83 81
f 81 83 84
f 81 84 80
f 80 84 85
f 80 85 79
f 79 85 86
f 79 86 78
f 78 86 87
f 78 87 77
f 77 87 88
f 77 88 76
f 76 88 89
f 76 89 75
f 75 89 90
f 75 90 74
f 74 90 91
f 74 91 73
f 73 91 92
f 73 92 72
f 72 92 93
f 72 93 71
f 71 93 94
f 71 94 70
f 70 94 95
f 70 95 69
f 69 95 96
f 69 96 68
f 68 96 97
f 68 97 67
f 67 97 98
f 67 98 66
f 66 98 99
f 66 99 65
f 65 99 100
f 65 100 64
f 64 100 101
f 64 101 63
f 63 101 102
f 63 102 62
f 62 102 103
f 62 103 61
f 61 103 104
f 61 104 60
f 60 104 105
f 60 105 59
f 59 105 106
f 59 106 58
f 58 106 107
f 58 107 57
f 57 107 108
f 57 108 56
f 56 108 109
f 56 109 55
f 55 109 110
f 55 110 54
f 54 110 111
f 54 111 53
f 53 111 112
f 53 112 52
f 52 112 113
f 52 113 51
f 51 113 114
f 51 114 50
f 50 114 115
f 50 115 49
f 49 115 116
f 49 116 48
f 48 116 117
f 48 117 47
f 47 117 118
f 47 118 46
f 46 118 119
f 46 119 45
f 45 119 120
f 45 120 44
f 44 120 121
f 44 121 43
f 43 121 122
f 43 122 42
f 42 122 123
f 42 123 41
f 41 123 124
f 41 124 40
f 40 124 125
f 40 125 39
f 39 125 126
f 39 126 38
f 38 126 127
f 38 127 37
f 37 127 128
f 37 128 36
f 36 128 129
f 36 129 35
f 35 129 130
f 35 130 34
f 34 130 131
f 34 131 33
f 33 131 132
f 33 132 32
f 32 132 133
f 32 133 31
f 31 133 134
f 31 134 30
f 30 134 135
f 30 135 29
f 29 135 136
f 29 136 28
f 28 136 137
f 28 137 27
f 27 137 138
f 27 138 26
f 26 138 139
f 26 139 25
f 25 139 140
f 25 140 24
f 24 140 141
f 24 141 23
f 23 141 142
f 23 142 22
f 22 142 143
f 22 143 21
f 21 143 144
f 21 144 20
f 20 144 145
f 20 145 19
f 19 145 146
f 19 146 18
f 18 146 147
f 18 147 17
f 17 147 148
f 17 148 16
f 16 148 149
f 16 149 15
f 15 149 150
f 15 150 14
f 14 150 151
f 14 151 13
f 13 151 152
f 13 152 12
f 12 152 153
f 12 153 11
f 11 153 154
f 11 154 10
f 10 154 155
f 10 155 9
f 9 155 156
f 9 156 8
f 8 156 157
f 8 157 7
f 7 157 158
f 7 158 6
f 6 158 159
f 6 159 5
f 5 159 160
f 5 160 4
f 4 160 161
f 4 161 3
f 3 161 162
f 3 162 2
f 2 162 82
f 162 123 82
f 82 123 122
f 82 122 83
f 83 122 121
f 83 121 84
f 84 121 120
f 84 120 85
f 85 120 119
f 85 119 86
f 86 119 118
f 86 118 87
f 87 118 117
f 87 117 88
f 88 117 116
f 88 116 89
f 89 116 115
f 89 115 90
f 90 115 114
f 90 114 91
f 91 114 113
f 91 113 92
f 92 113 112
f 92 112 93
f 93 112 111
f 93 111 94
f 94 111 110
f 94 110 95
f 95 110 109
f 95 109 96
f 96 109 108
f 96 108 97
f 97 108 107
f 97 107 98
f 98 107 106
f 98 106 99
f 99 106 105
f 99 105 100
f 100 105 104
f 100 104 101
f 101 104 103
f 101 103 102
f 123 162 124
f 124 162 161
f 124 161 125
f 125 161 160
f 125 160 126
f 126 160 159
f 126 159 127
f 127 159 158
f 127 158 128
f 128 158 157
f 128 157 129
f 129 157 156
f 129 156 130
f 130 156 155
f 130 155 131
f 131 155 154
f 131 154 132
f 132 154 153
f 132 153 133
f 133 153 152
f 133 152 134
f 134 152 151
f 134 151 135
f 135 151 150
f 135 150 136
f 136 150 149
f 136 149 137
f 137 149 148
f 137 148 138
f 138 148 147
f 138 147 139
f 139 147 146
f 139 146 140
f 140 146 145
f 140 145 141
f 141 145 144
f 141 144 142
f 142 144 143
f 81 164 1
f 1 164 165
f 1 165 2
f 2 165 3
f 3 165 4
f 4 165 5
f 5 165 6
f 6 165 7
f 7 165 8
f 8 165 9
f 9 165 10
f 10 165 11
f 11 165 12
f 12 165 13
f 13 165 14
f 14 165 15
f 15 165 16
f 16 165 17
f 17 165 18
f 18 165 19
f 19 165 20
f 20 165 21
f 21 165 166
f 21 166 22
f 22 166 23
f 23 166 24
f 24 166 25
f 25 166 26
f 26 166 27
f 27 166 28
f 28 166 29
f 29 166 30
f 30 166 31
f 31 166 32
f 32 166 33
f 33 166 34
f 34 166 35
f 35 166 36
f 36 166 37
f 37 166 38
f 38 166 39
f 39 166 40
f 40 166 41
f 41 166 163
f 41 163 42
f 42 163 43
f 43 163 44
f 44 163 45
f 45 163 46
f 46 163 47
f 47 163 48
f 48 163 49
f 49 163 50
f 50 163 51
f 51 163 52
f 52 163 53
f 53 163 54
f 54 163 55
f 55 163 56
f 56 163 57
f 57 163 58
f 58 163 59
f 59 163 60
f 60 163 61
f 61 163 62
f 62 163 164
f 62 164 63
f 63 164 64
f 64 164 65
f 65 164 66
f 66 164 67
f 67 164 68
f 68 164 69
f 69 164 70
f 70 164 71
f 71 164 72
f 72 164 73
f 73 164 74
f 74 164 75
f 75 164 76
f 76 164 77
f 77 164 78
f 78 164 79
f 79 164 80
f 80 164 81
f 168 169 167
f 167 169 170
f 166 169 163
f 163 169 168
f 165 170 166
f 166 170 169
f 164 167 165
f 165 167 170
f 163 168 164
f 164 168 167

# 170 vertices
# 0 texture params
# 0 normals
# 336 facets

# 1 groups
