####
#
# OBJ File Generated by Meshlab
#
####
# Object camera2.obj
#
# Vertices: 170
# Faces: 336
#
####
mtllib ./camera2.obj.mtl

vn 0.698163 0.000000 0.715939
v 4.000000 0.000000 0.000000
vn 0.696063 0.054102 0.715939
v 3.987972 0.309969 0.000000
vn 0.689777 0.107879 0.715940
v 3.951960 0.618075 0.000000
vn 0.679343 0.161008 0.715940
v 3.892180 0.922464 0.000000
vn 0.664824 0.213168 0.715939
v 3.808992 1.221304 0.000000
vn 0.646305 0.264046 0.715940
v 3.702896 1.512799 0.000000
vn 0.623901 0.313335 0.715939
v 3.574530 1.795197 0.000000
vn 0.597744 0.360739 0.715940
v 3.424668 2.066797 0.000000
vn 0.567991 0.405976 0.715940
v 3.254209 2.325968 0.000000
vn 0.534823 0.448771 0.715939
v 3.064178 2.571150 0.000000
vn 0.498438 0.488866 0.715940
v 2.855719 2.800869 0.000000
vn 0.459058 0.526021 0.715939
v 2.630085 3.013743 0.000000
vn 0.416914 0.560011 0.715940
v 2.388635 3.208493 0.000000
vn 0.372263 0.590636 0.715940
v 2.132818 3.383946 0.000000
vn 0.325373 0.617708 0.715939
v 1.864174 3.539047 0.000000
vn 0.276529 0.641064 0.715939
v 1.584319 3.672864 0.000000
vn 0.226019 0.660564 0.715940
v 1.294936 3.784593 0.000000
vn 0.174150 0.676094 0.715939
v 0.997764 3.873560 0.000000
vn 0.121234 0.687556 0.715939
v 0.694593 3.939231 0.000000
vn 0.067590 0.694883 0.715939
v 0.387244 3.981211 0.000000
vn 0.013539 0.698031 0.715940
v 0.077565 3.999248 0.000000
vn -0.040594 0.696981 0.715939
v -0.232579 3.993233 0.000000
vn -0.094484 0.691739 0.715940
v -0.541325 3.963202 0.000000
vn -0.147804 0.682338 0.715939
v -0.846815 3.909335 0.000000
vn -0.200234 0.668832 0.715940
v -1.147213 3.831958 0.000000
vn -0.251462 0.651304 0.715939
v -1.440711 3.731535 0.000000
vn -0.301177 0.629860 0.715939
v -1.725544 3.608670 0.000000
vn -0.349081 0.604626 0.715940
v -2.000000 3.464102 0.000000
vn -0.394886 0.575757 0.715940
v -2.262428 3.298700 0.000000
vn -0.438316 0.543424 0.715940
v -2.511248 3.113460 0.000000
vn -0.479109 0.507825 0.715939
v -2.744966 2.909494 0.000000
vn -0.517019 0.469171 0.715939
v -2.962176 2.688031 0.000000
vn -0.551822 0.427694 0.715940
v -3.161571 2.450402 0.000000
vn -0.583307 0.383646 0.715939
v -3.341951 2.198036 0.000000
vn -0.611282 0.337292 0.715939
v -3.502233 1.932450 0.000000
vn -0.635581 0.288906 0.715940
v -3.641452 1.655243 0.000000
vn -0.656059 0.238785 0.715939
v -3.758770 1.368080 0.000000
vn -0.672589 0.187228 0.715939
v -3.853483 1.072690 0.000000
vn -0.685075 0.134545 0.715940
v -3.925021 0.770849 0.000000
vn -0.693442 0.081052 0.715939
v -3.972953 0.464371 0.000000
vn -0.697637 0.027072 0.715940
v -3.996992 0.155101 0.000000
vn -0.697637 -0.027072 0.715940
v -3.996992 -0.155101 0.000000
vn -0.693442 -0.081052 0.715939
v -3.972953 -0.464371 0.000000
vn -0.685075 -0.134545 0.715940
v -3.925021 -0.770849 0.000000
vn -0.672589 -0.187228 0.715939
v -3.853483 -1.072690 0.000000
vn -0.656059 -0.238785 0.715939
v -3.758770 -1.368080 0.000000
vn -0.635581 -0.288906 0.715940
v -3.641452 -1.655243 0.000000
vn -0.611281 -0.337292 0.715940
v -3.502233 -1.932451 0.000000
vn -0.583306 -0.383647 0.715939
v -3.341951 -2.198036 0.000000
vn -0.551823 -0.427694 0.715940
v -3.161571 -2.450402 0.000000
vn -0.517020 -0.469171 0.715940
v -2.962176 -2.688032 0.000000
vn -0.479108 -0.507825 0.715939
v -2.744966 -2.909495 0.000000
vn -0.438315 -0.543425 0.715939
v -2.511248 -3.113460 0.000000
vn -0.394886 -0.575757 0.715940
v -2.262428 -3.298700 0.000000
vn -0.349081 -0.604626 0.715940
v -2.000000 -3.464102 0.000000
vn -0.301177 -0.629860 0.715939
v -1.725544 -3.608670 0.000000
vn -0.251462 -0.651304 0.715939
v -1.440711 -3.731535 0.000000
vn -0.200236 -0.668832 0.715939
v -1.147213 -3.831958 0.000000
vn -0.147804 -0.682337 0.715940
v -0.846815 -3.909336 0.000000
vn -0.094483 -0.691740 0.715939
v -0.541325 -3.963202 0.000000
vn -0.040594 -0.696981 0.715939
v -0.232579 -3.993233 0.000000
vn 0.013539 -0.698031 0.715939
v 0.077565 -3.999248 0.000000
vn 0.067590 -0.694883 0.715939
v 0.387244 -3.981211 0.000000
vn 0.121234 -0.687556 0.715939
v 0.694593 -3.939231 0.000000
vn 0.174150 -0.676094 0.715939
v 0.997764 -3.873560 0.000000
vn 0.226019 -0.660564 0.715940
v 1.294936 -3.784593 0.000000
vn 0.276529 -0.641064 0.715939
v 1.584319 -3.672864 0.000000
vn 0.325373 -0.617708 0.715939
v 1.864174 -3.539047 0.000000
vn 0.372263 -0.590636 0.715940
v 2.132818 -3.383946 0.000000
vn 0.416914 -0.560012 0.715940
v 2.388635 -3.208493 0.000000
vn 0.459057 -0.526020 0.715939
v 2.630085 -3.013744 0.000000
vn 0.498439 -0.488866 0.715939
v 2.855719 -2.800869 0.000000
vn 0.534823 -0.448771 0.715940
v 3.064178 -2.571151 0.000000
vn 0.567991 -0.405976 0.715939
v 3.254209 -2.325968 0.000000
vn 0.597744 -0.360739 0.715940
v 3.424668 -2.066798 0.000000
vn 0.623902 -0.313334 0.715939
v 3.574530 -1.795197 0.000000
vn 0.646305 -0.264046 0.715940
v 3.702896 -1.512799 0.000000
vn 0.664824 -0.213168 0.715939
v 3.808992 -1.221304 0.000000
vn 0.679343 -0.161008 0.715940
v 3.892180 -0.922464 0.000000
vn 0.689777 -0.107879 0.715940
v 3.951960 -0.618075 0.000000
vn 0.696063 -0.054102 0.715939
v 3.987972 -0.309970 0.000000
vn 0.715627 0.000000 0.698483
v 4.000000 0.000000 3.000000
vn 0.713475 -0.055455 0.698482
v 3.987972 -0.309970 3.000000
vn 0.707033 -0.110578 0.698482
v 3.951960 -0.618075 3.000000
vn 0.696337 -0.165035 0.698483
v 3.892180 -0.922464 3.000000
vn 0.681454 -0.218500 0.698483
v 3.808992 -1.221304 3.000000
vn 0.662473 -0.270651 0.698482
v 3.702896 -1.512799 3.000000
vn 0.639507 -0.321172 0.698483
v 3.574530 -1.795197 3.000000
vn 0.612697 -0.369763 0.698482
v 3.424668 -2.066798 3.000000
vn 0.582200 -0.416132 0.698483
v 3.254209 -2.325968 3.000000
vn 0.548202 -0.459997 0.698483
v 3.064178 -2.571151 3.000000
vn 0.510907 -0.501095 0.698483
v 2.855719 -2.800869 3.000000
vn 0.470540 -0.539178 0.698483
v 2.630085 -3.013744 3.000000
vn 0.427343 -0.574021 0.698482
v 2.388635 -3.208493 3.000000
vn 0.381575 -0.605411 0.698483
v 2.132818 -3.383946 3.000000
vn 0.333512 -0.633160 0.698483
v 1.864174 -3.539047 3.000000
vn 0.283446 -0.657100 0.698483
v 1.584319 -3.672864 3.000000
vn 0.231673 -0.677090 0.698482
v 1.294936 -3.784593 3.000000
vn 0.178506 -0.693006 0.698483
v 0.997764 -3.873560 3.000000
vn 0.124267 -0.704755 0.698483
v 0.694593 -3.939231 3.000000
vn 0.069281 -0.712265 0.698483
v 0.387244 -3.981211 3.000000
vn 0.013878 -0.715493 0.698483
v 0.077565 -3.999248 3.000000
vn -0.041610 -0.714416 0.698482
v -0.232579 -3.993233 3.000000
vn -0.096846 -0.709044 0.698483
v -0.541325 -3.963202 3.000000
vn -0.151501 -0.699407 0.698483
v -0.846815 -3.909336 3.000000
vn -0.205244 -0.685563 0.698483
v -1.147213 -3.831958 3.000000
vn -0.257753 -0.667597 0.698482
v -1.440711 -3.731535 3.000000
vn -0.308711 -0.645615 0.698483
v -1.725544 -3.608670 3.000000
vn -0.357813 -0.619751 0.698483
v -2.000000 -3.464102 3.000000
vn -0.404764 -0.590160 0.698483
v -2.262428 -3.298700 3.000000
vn -0.449280 -0.557019 0.698483
v -2.511248 -3.113460 3.000000
vn -0.491093 -0.520528 0.698483
v -2.744966 -2.909495 3.000000
vn -0.529953 -0.480907 0.698483
v -2.962176 -2.688032 3.000000
vn -0.565627 -0.438393 0.698483
v -3.161571 -2.450402 3.000000
vn -0.597897 -0.393244 0.698483
v -3.341951 -2.198036 3.000000
vn -0.626573 -0.345729 0.698482
v -3.502233 -1.932451 3.000000
vn -0.651481 -0.296133 0.698482
v -3.641452 -1.655243 3.000000
vn -0.672470 -0.244758 0.698483
v -3.758770 -1.368080 3.000000
vn -0.689414 -0.191912 0.698483
v -3.853483 -1.072690 3.000000
vn -0.702213 -0.137910 0.698482
v -3.925021 -0.770849 3.000000
vn -0.710788 -0.083080 0.698483
v -3.972953 -0.464371 3.000000
vn -0.715089 -0.027749 0.698482
v -3.996992 -0.155101 3.000000
vn -0.715089 0.027749 0.698482
v -3.996992 0.155101 3.000000
vn -0.710788 0.083080 0.698483
v -3.972953 0.464371 3.000000
vn -0.702213 0.137910 0.698482
v -3.925021 0.770849 3.000000
vn -0.689414 0.191912 0.698483
v -3.853483 1.072690 3.000000
vn -0.672470 0.244758 0.698483
v -3.758770 1.368080 3.000000
vn -0.651481 0.296134 0.698482
v -3.641452 1.655243 3.000000
vn -0.626573 0.345729 0.698483
v -3.502233 1.932450 3.000000
vn -0.597898 0.393243 0.698483
v -3.341951 2.198036 3.000000
vn -0.565627 0.438394 0.698482
v -3.161571 2.450402 3.000000
vn -0.529953 0.480908 0.698483
v -2.962176 2.688031 3.000000
vn -0.491093 0.520528 0.698483
v -2.744966 2.909494 3.000000
vn -0.449281 0.557018 0.698482
v -2.511248 3.113460 3.000000
vn -0.404764 0.590160 0.698483
v -2.262428 3.298700 3.000000
vn -0.357813 0.619751 0.698483
v -2.000000 3.464102 3.000000
vn -0.308711 0.645615 0.698483
v -1.725544 3.608670 3.000000
vn -0.257753 0.667597 0.698482
v -1.440711 3.731535 3.000000
vn -0.205243 0.685564 0.698482
v -1.147213 3.831958 3.000000
vn -0.151501 0.699406 0.698483
v -0.846815 3.909335 3.000000
vn -0.096848 0.709044 0.698482
v -0.541325 3.963202 3.000000
vn -0.041610 0.714416 0.698483
v -0.232579 3.993233 3.000000
vn 0.013878 0.715493 0.698483
v 0.077565 3.999248 3.000000
vn 0.069281 0.712265 0.698483
v 0.387244 3.981211 3.000000
vn 0.124267 0.704755 0.698483
v 0.694593 3.939231 3.000000
vn 0.178506 0.693006 0.698483
v 0.997764 3.873560 3.000000
vn 0.231673 0.677090 0.698482
v 1.294936 3.784593 3.000000
vn 0.283446 0.657100 0.698483
v 1.584319 3.672864 3.000000
vn 0.333512 0.633160 0.698483
v 1.864174 3.539047 3.000000
vn 0.381575 0.605411 0.698483
v 2.132818 3.383946 3.000000
vn 0.427344 0.574021 0.698482
v 2.388635 3.208493 3.000000
vn 0.470540 0.539178 0.698483
v 2.630085 3.013743 3.000000
vn 0.510907 0.501095 0.698483
v 2.855719 2.800869 3.000000
vn 0.548202 0.459997 0.698483
v 3.064178 2.571150 3.000000
vn 0.582200 0.416132 0.698482
v 3.254209 2.325968 3.000000
vn 0.612697 0.369763 0.698483
v 3.424668 2.066797 3.000000
vn 0.639507 0.321173 0.698483
v 3.574530 1.795197 3.000000
vn 0.662473 0.270651 0.698482
v 3.702896 1.512799 3.000000
vn 0.681454 0.218500 0.698483
v 3.808992 1.221304 3.000000
vn 0.696337 0.165035 0.698483
v 3.892180 0.922464 3.000000
vn 0.707033 0.110577 0.698482
v 3.951960 0.618075 3.000000
vn 0.713475 0.055455 0.698483
v 3.987972 0.309969 3.000000
vn -0.577352 -0.577352 0.577348
v -5.000000 -5.000000 0.000000
vn 0.577351 -0.577351 0.577349
v 5.000000 -5.000000 0.000000
vn 0.577351 0.577351 0.577349
v 5.000000 5.000000 0.000000
vn -0.577352 0.577352 0.577348
v -5.000000 5.000000 0.000000
vn 0.577350 -0.577350 -0.577350
v 5.000000 -5.000000 -10.000000
vn -0.577350 -0.577350 -0.577350
v -5.000000 -5.000000 -10.000000
vn -0.577350 0.577350 -0.577350
v -5.000000 5.000000 -10.000000
vn 0.577350 0.577350 -0.577350
v 5.000000 5.000000 -10.000000
# 170 vertices, 0 vertices normals


usemtl material_0
f 2//2 82//82 1//1
f 1//1 82//82 83//83
f 1//1 83//83 81//81
f 81//81 83//83 84//84
f 81//81 84//84 80//80
f 80//80 84//84 85//85
f 80//80 85//85 79//79
f 79//79 85//85 86//86
f 79//79 86//86 78//78
f 78//78 86//86 87//87
f 78//78 87//87 77//77
f 77//77 87//87 88//88
f 77//77 88//88 76//76
f 76//76 88//88 89//89
f 76//76 89//89 75//75
f 75//75 89//89 90//90
f 75//75 90//90 74//74
f 74//74 90//90 91//91
f 74//74 91//91 73//73
f 73//73 91//91 92//92
f 73//73 92//92 72//72
f 72//72 92//92 93//93
f 72//72 93//93 71//71
f 71//71 93//93 94//94
f 71//71 94//94 70//70
f 70//70 94//94 95//95
f 70//70 95//95 69//69
f 69//69 95//95 96//96
f 69//69 96//96 68//68
f 68//68 96//96 97//97
f 68//68 97//97 67//67
f 67//67 97//97 98//98
f 67//67 98//98 66//66
f 66//66 98//98 99//99
f 66//66 99//99 65//65
f 65//65 99//99 100//100
f 65//65 100//100 64//64
f 64//64 100//100 101//101
f 64//64 101//101 63//63
f 63//63 101//101 102//102
f 63//63 102//102 62//62
f 62//62 102//102 103//103
f 62//62 103//103 61//61
f 61//61 103//103 104//104
f 61//61 104//104 60//60
f 60//60 104//104 105//105
f 60//60 105//105 59//59
f 59//59 105//105 106//106
f 59//59 106//106 58//58
f 58//58 106//106 107//107
f 58//58 107//107 57//57
f 57//57 107//107 108//108
f 57//57 108//108 56//56
f 56//56 108//108 109//109
f 56//56 109//109 55//55
f 55//55 109//109 110//110
f 55//55 110//110 54//54
f 54//54 110//110 111//111
f 54//54 111//111 53//53
f 53//53 111//111 112//112
f 53//53 112//112 52//52
f 52//52 112//112 113//113
f 52//52 113//113 51//51
f 51//51 113//113 114//114
f 51//51 114//114 50//50
f 50//50 114//114 115//115
f 50//50 115//115 49//49
f 49//49 115//115 116//116
f 49//49 116//116 48//48
f 48//48 116//116 117//117
f 48//48 117//117 47//47
f 47//47 117//117 118//118
f 47//47 118//118 46//46
f 46//46 118//118 119//119
f 46//46 119//119 45//45
f 45//45 119//119 120//120
f 45//45 120//120 44//44
f 44//44 120//120 121//121
f 44//44 121//121 43//43
f 43//43 121//121 122//122
f 43//43 122//122 42//42
f 42//42 122//122 123//123
f 42//42 123//123 41//41
f 41//41 123//123 124//124
f 41//41 124//124 40//40
f 40//40 124//124 125//125
f 40//40 125//125 39//39
f 39//39 125//125 126//126
f 39//39 126//126 38//38
f 38//38 126//126 127//127
f 38//38 127//127 37//37
f 37//37 127//127 128//128
f 37//37 128//128 36//36
f 36//36 128//128 129//129
f 36//36 129//129 35//35
f 35//35 129//129 130//130
f 35//35 130//130 34//34
f 34//34 130//130 131//131
f 34//34 131//131 33//33
f 33//33 131//131 132//132
f 33//33 132//132 32//32
f 32//32 132//132 133//133
f 32//32 133//133 31//31
f 31//31 133//133 134//134
f 31//31 134//134 30//30
f 30//30 134//134 135//135
f 30//30 135//135 29//29
f 29//29 135//135 136//136
f 29//29 136//136 28//28
f 28//28 136//136 137//137
f 28//28 137//137 27//27
f 27//27 137//137 138//138
f 27//27 138//138 26//26
f 26//26 138//138 139//139
f 26//26 139//139 25//25
f 25//25 139//139 140//140
f 25//25 140//140 24//24
f 24//24 140//140 141//141
f 24//24 141//141 23//23
f 23//23 141//141 142//142
f 23//23 142//142 22//22
f 22//22 142//142 143//143
f 22//22 143//143 21//21
f 21//21 143//143 144//144
f 21//21 144//144 20//20
f 20//20 144//144 145//145
f 20//20 145//145 19//19
f 19//19 145//145 146//146
f 19//19 146//146 18//18
f 18//18 146//146 147//147
f 18//18 147//147 17//17
f 17//17 147//147 148//148
f 17//17 148//148 16//16
f 16//16 148//148 149//149
f 16//16 149//149 15//15
f 15//15 149//149 150//150
f 15//15 150//150 14//14
f 14//14 150//150 151//151
f 14//14 151//151 13//13
f 13//13 151//151 152//152
f 13//13 152//152 12//12
f 12//12 152//152 153//153
f 12//12 153//153 11//11
f 11//11 153//153 154//154
f 11//11 154//154 10//10
f 10//10 154//154 155//155
f 10//10 155//155 9//9
f 9//9 155//155 156//156
f 9//9 156//156 8//8
f 8//8 156//156 157//157
f 8//8 157//157 7//7
f 7//7 157//157 158//158
f 7//7 158//158 6//6
f 6//6 158//158 159//159
f 6//6 159//159 5//5
f 5//5 159//159 160//160
f 5//5 160//160 4//4
f 4//4 160//160 161//161
f 4//4 161//161 3//3
f 3//3 161//161 162//162
f 3//3 162//162 2//2
f 2//2 162//162 82//82
f 162//162 123//123 82//82
f 82//82 123//123 122//122
f 82//82 122//122 83//83
f 83//83 122//122 121//121
f 83//83 121//121 84//84
f 84//84 121//121 120//120
f 84//84 120//120 85//85
f 85//85 120//120 119//119
f 85//85 119//119 86//86
f 86//86 119//119 118//118
f 86//86 118//118 87//87
f 87//87 118//118 117//117
f 87//87 117//117 88//88
f 88//88 117//117 116//116
f 88//88 116//116 89//89
f 89//89 116//116 115//115
f 89//89 115//115 90//90
f 90//90 115//115 114//114
f 90//90 114//114 91//91
f 91//91 114//114 113//113
f 91//91 113//113 92//92
f 92//92 113//113 112//112
f 92//92 112//112 93//93
f 93//93 112//112 111//111
f 93//93 111//111 94//94
f 94//94 111//111 110//110
f 94//94 110//110 95//95
f 95//95 110//110 109//109
f 95//95 109//109 96//96
f 96//96 109//109 108//108
f 96//96 108//108 97//97
f 97//97 108//108 107//107
f 97//97 107//107 98//98
f 98//98 107//107 106//106
f 98//98 106//106 99//99
f 99//99 106//106 105//105
f 99//99 105//105 100//100
f 100//100 105//105 104//104
f 100//100 104//104 101//101
f 101//101 104//104 103//103
f 101//101 103//103 102//102
f 123//123 162//162 124//124
f 124//124 162//162 161//161
f 124//124 161//161 125//125
f 125//125 161//161 160//160
f 125//125 160//160 126//126
f 126//126 160//160 159//159
f 126//126 159//159 127//127
f 127//127 159//159 158//158
f 127//127 158//158 128//128
f 128//128 158//158 157//157
f 128//128 157//157 129//129
f 129//129 157//157 156//156
f 129//129 156//156 130//130
f 130//130 156//156 155//155
f 130//130 155//155 131//131
f 131//131 155//155 154//154
f 131//131 154//154 132//132
f 132//132 154//154 153//153
f 132//132 153//153 133//133
f 133//133 153//153 152//152
f 133//133 152//152 134//134
f 134//134 152//152 151//151
f 134//134 151//151 135//135
f 135//135 151//151 150//150
f 135//135 150//150 136//136
f 136//136 150//150 149//149
f 136//136 149//149 137//137
f 137//137 149//149 148//148
f 137//137 148//148 138//138
f 138//138 148//148 147//147
f 138//138 147//147 139//139
f 139//139 147//147 146//146
f 139//139 146//146 140//140
f 140//140 146//146 145//145
f 140//140 145//145 141//141
f 141//141 145//145 144//144
f 141//141 144//144 142//142
f 142//142 144//144 143//143
f 81//81 164//164 1//1
f 1//1 164//164 165//165
f 1//1 165//165 2//2
f 2//2 165//165 3//3
f 3//3 165//165 4//4
f 4//4 165//165 5//5
f 5//5 165//165 6//6
f 6//6 165//165 7//7
f 7//7 165//165 8//8
f 8//8 165//165 9//9
f 9//9 165//165 10//10
f 10//10 165//165 11//11
f 11//11 165//165 12//12
f 12//12 165//165 13//13
f 13//13 165//165 14//14
f 14//14 165//165 15//15
f 15//15 165//165 16//16
f 16//16 165//165 17//17
f 17//17 165//165 18//18
f 18//18 165//165 19//19
f 19//19 165//165 20//20
f 20//20 165//165 21//21
f 21//21 165//165 166//166
f 21//21 166//166 22//22
f 22//22 166//166 23//23
f 23//23 166//166 24//24
f 24//24 166//166 25//25
f 25//25 166//166 26//26
f 26//26 166//166 27//27
f 27//27 166//166 28//28
f 28//28 166//166 29//29
f 29//29 166//166 30//30
f 30//30 166//166 31//31
f 31//31 166//166 32//32
f 32//32 166//166 33//33
f 33//33 166//166 34//34
f 34//34 166//166 35//35
f 35//35 166//166 36//36
f 36//36 166//166 37//37
f 37//37 166//166 38//38
f 38//38 166//166 39//39
f 39//39 166//166 40//40
f 40//40 166//166 41//41
f 41//41 166//166 163//163
f 41//41 163//163 42//42
f 42//42 163//163 43//43
f 43//43 163//163 44//44
f 44//44 163//163 45//45
f 45//45 163//163 46//46
f 46//46 163//163 47//47
f 47//47 163//163 48//48
f 48//48 163//163 49//49
f 49//49 163//163 50//50
f 50//50 163//163 51//51
f 51//51 163//163 52//52
f 52//52 163//163 53//53
f 53//53 163//163 54//54
f 54//54 163//163 55//55
f 55//55 163//163 56//56
f 56//56 163//163 57//57
f 57//57 163//163 58//58
f 58//58 163//163 59//59
f 59//59 163//163 60//60
f 60//60 163//163 61//61
f 61//61 163//163 62//62
f 62//62 163//163 164//164
f 62//62 164//164 63//63
f 63//63 164//164 64//64
f 64//64 164//164 65//65
f 65//65 164//164 66//66
f 66//66 164//164 67//67
f 67//67 164//164 68//68
f 68//68 164//164 69//69
f 69//69 164//164 70//70
f 70//70 164//164 71//71
f 71//71 164//164 72//72
f 72//72 164//164 73//73
f 73//73 164//164 74//74
f 74//74 164//164 75//75
f 75//75 164//164 76//76
f 76//76 164//164 77//77
f 77//77 164//164 78//78
f 78//78 164//164 79//79
f 79//79 164//164 80//80
f 80//80 164//164 81//81
f 168//168 169//169 167//167
f 167//167 169//169 170//170
f 166//166 169//169 163//163
f 163//163 169//169 168//168
f 165//165 170//170 166//166
f 166//166 170//170 169//169
f 164//164 167//167 165//165
f 165//165 167//167 170//170
f 163//163 168//168 164//164
f 164//164 168//168 167//167
# 336 faces, 0 coords texture

# End of File
